PathFileType	4	(X/Y/Z)	3_coords_data.trc
DataRate	CameraRate	NumFrames	NumMarkers	Units	OrigDataRate	OrigDataStartFrame	OrigNumFrames
30.0	30.0	7	21	m	30.0	40	49
Frame#	Time	THUMB_TIP	THUMB_IP	THUMB_MCP	THUMB_CMC	INDEX_TIP	INDEX_DIP	INDEX_PIP	INDEX_MCP	MIDDLE_TIP	MIDDLE_DIP	MIDDLE_PIP	MIDDLE_MCP	RING_TIP	RING_DIP	RING_PIP	RING_MCP	PINKY_TIP	PINKY_DIP	PINKY_PIP	PINKY_MCP	WRIST
X1	Y1	Z1	X2	Y2	Z2	X3	Y3	Z3	X4	Y4	Z4	X5	Y5	Z5	X6	Y6	Z6	X7	Y7	Z7	X8	Y8	Z8	X9	Y9	Z9	X10	Y10	Z10	X11	Y11	Z11	X12	Y12	Z12	X13	Y13	Z13	X14	Y14	Z14	X15	Y15	Z15	X16	Y16	Z16	X17	Y17	Z17	X18	Y18	Z18	X19	Y19	Z19	X20	Y20	Z20	X21	Y21	Z21
39	1.3	-0.05865190124511719	-0.12375800323486329	0.9787030029296875	-0.06940779876708984	-0.10716600036621093	0.9994539794921875	-0.08280110168457032	-0.09415139770507812	1.02627001953125	-0.09155560302734375	-0.0647406005859375	1.0481400146484374	-0.043735599517822264	-0.07484149932861328	0.9182379760742188	-0.059052398681640625	-0.07600189971923828	0.9360150146484375	-0.07388590240478515	-0.0764748992919922	0.9555269775390625	-0.09114340209960937	-0.0744573974609375	0.9910969848632812	-0.049823699951171876	-0.05214189910888672	0.9052030029296875	-0.06332009887695313	-0.05261650085449219	0.9256370239257813	-0.07905780029296874	-0.052880298614501955	0.951156982421875	-0.09448799896240234	-0.052343299865722656	0.9875800170898438	-0.04834140014648437	-0.019266700744628905	0.9230900268554687	-0.06357080078125	-0.02147330093383789	0.9397620239257812	-0.08090799713134765	-0.02508559989929199	0.9599010009765625	-0.0964739990234375	-0.03255189895629883	0.9940050048828125	-0.054180801391601564	0.008620880126953124	0.951343017578125	-0.06763670349121094	0.0033808000087738026	0.96514501953125	-0.07975579833984375	-0.003009510040283203	0.9791959838867188	-0.09145400238037109	-0.014824299812316895	1.0022100219726562	-0.11611900329589844	-0.03945399856567383	1.066969970703125
40	1.3333333333333333	-0.051033798217773436	-0.11335600280761719	0.9765859985351563	-0.06517040252685546	-0.10125399780273438	0.9979329833984375	-0.08025399780273437	-0.09130819702148438	1.025199951171875	-0.09063639831542969	-0.06370380020141601	1.047010009765625	-0.03650180053710937	-0.06855619812011719	0.9277760009765625	-0.05562369918823242	-0.07122450256347657	0.9403359985351563	-0.0744021987915039	-0.07330380249023437	0.9561380004882812	-0.0945166015625	-0.07399289703369141	0.990718017578125	-0.04149349975585938	-0.048326099395751956	0.91427001953125	-0.05940349960327149	-0.0495989990234375	0.9296610107421875	-0.07997129821777343	-0.05103049850463867	0.951427978515625	-0.09873049926757813	-0.051913101196289065	0.9872869873046874	-0.043470199584960935	-0.02226300048828125	0.9306489868164063	-0.06160269927978516	-0.022901199340820313	0.9427730102539063	-0.08255390167236328	-0.025381500244140626	0.9598060302734375	-0.10016000366210938	-0.03207229995727539	0.9935780029296875	-0.051135700225830076	0.0024552400112152098	0.9540070190429687	-0.06673509979248046	0.000265772014856338	0.9650900268554687	-0.08131829833984375	-0.004118889808654785	0.9781430053710938	-0.09473699951171875	-0.014165900230407714	1.001489990234375	-0.11590200042724609	-0.0388827018737793	1.066949951171875
41	1.3666666666666667	-0.04579050064086914	-0.10149400329589844	0.974052001953125	-0.06179109954833984	-0.0937842025756836	0.9962230224609375	-0.07733950042724609	-0.087220703125	1.02375	-0.08973509979248047	-0.06143239974975586	1.0455799560546875	-0.03189739990234375	-0.06572109985351562	0.9380339965820312	-0.05303860092163086	-0.06852580261230469	0.9450960083007812	-0.07474610137939453	-0.07115339660644532	0.9570709838867187	-0.0973667984008789	-0.07310710144042969	0.9899669799804688	-0.03536119842529297	-0.04640859985351563	0.92475	-0.056079700469970704	-0.04756460189819336	0.934844970703125	-0.0800906982421875	-0.049264598846435546	0.9520050048828125	-0.10205899810791015	-0.05094889831542969	0.987010986328125	-0.03992530059814453	-0.02447570037841797	0.939677001953125	-0.05968709945678711	-0.023723199844360353	0.9466829833984375	-0.08358070373535156	-0.02505820083618164	0.9598259887695313	-0.10314199829101563	-0.030999099731445313	0.9932160034179688	-0.04887099838256836	-0.003120009899139404	0.9589180297851563	-0.06631670379638673	-0.002081290006637573	0.9665490112304688	-0.08284989929199219	-0.004386690139770508	0.9774739990234375	-0.09772239685058594	-0.012828100204467773	1.0011300048828125	-0.11600399780273438	-0.03781940078735352	1.066739990234375
42	1.4	-0.04359510040283203	-0.0919104995727539	0.9724409790039062	-0.05966320037841797	-0.0874623031616211	0.9948759765625	-0.0756864013671875	-0.08304029846191406	1.023280029296875	-0.08911990356445312	-0.05863529968261719	1.0451300048828125	-0.030406099319458008	-0.06365859985351563	0.9439990234375	-0.051900901794433595	-0.06659940338134765	0.9482449951171875	-0.07473200225830078	-0.06941419982910156	0.957927001953125	-0.09868180084228516	-0.07195919799804687	0.9901339721679687	-0.034635501861572264	-0.04501340103149414	0.9295390014648437	-0.0563213996887207	-0.046074600219726564	0.9370189819335938	-0.08137960052490234	-0.047838699340820315	0.9521599731445313	-0.10391400146484375	-0.04966880035400391	0.9870830078125	-0.03947859954833984	-0.02421339988708496	0.9452340087890625	-0.05981919860839844	-0.022713300704956054	0.9492360229492187	-0.0849041976928711	-0.02373979949951172	0.9598480224609375	-0.104677001953125	-0.029583099365234376	0.993239013671875	-0.04863669967651367	-0.004620419979095459	0.9625150146484375	-0.0665011978149414	-0.00198062002658844	0.967593994140625	-0.08398770141601562	-0.00332980990409851	0.9774140014648437	-0.09937380218505859	-0.011257599830627442	1.001030029296875	-0.1155780029296875	-0.036720600128173825	1.06681005859375
43	1.4333333333333333	-0.04287540054321289	-0.08561160278320312	0.9715180053710938	-0.05912620162963867	-0.08306600189208985	0.994364990234375	-0.07496440124511719	-0.07997899627685547	1.0228099975585938	-0.08909539794921875	-0.05635070037841797	1.0450400390625	-0.02987750053405762	-0.06094390106201172	0.9475020141601562	-0.0514208984375	-0.06399480056762695	0.9497459716796876	-0.07480740356445313	-0.06708509826660156	0.9581160278320312	-0.09933450317382812	-0.07023560333251953	0.990416015625	-0.033676200866699216	-0.04240610122680664	0.9337880249023438	-0.05578300094604492	-0.04352379989624024	0.938969970703125	-0.08165959930419922	-0.045574199676513674	0.9523159790039063	-0.10486299896240234	-0.04789450073242187	0.987375	-0.039747699737548825	-0.02252840042114258	0.9486840209960937	-0.06006430053710937	-0.020818599700927733	0.9506680297851563	-0.08572360229492187	-0.02169729995727539	0.9598790283203125	-0.10583499908447265	-0.027842500686645507	0.99331298828125	-0.04954209899902344	-0.004186689853668213	0.964677001953125	-0.06737439727783204	-0.0006857470273971551	0.9681790161132813	-0.08538150024414062	-0.0015792499780654902	0.977333984375	-0.10070500183105469	-0.009364629745483398	1.0011799926757812	-0.11563999938964843	-0.03530699920654297	1.067199951171875
44	1.4666666666666666	-0.04246540069580078	-0.08156449890136719	0.971094970703125	-0.05868980026245117	-0.07991159820556641	0.99410400390625	-0.07455049896240235	-0.07753019714355469	1.022469970703125	-0.08884210205078125	-0.05480889892578125	1.0449200439453126	-0.02849180030822754	-0.05776380157470703	0.9500889892578125	-0.050172298431396485	-0.06092530059814453	0.95122998046875	-0.073810302734375	-0.06423190307617188	0.9583699951171875	-0.09906890106201172	-0.0680531005859375	0.9904639892578125	-0.031219600677490234	-0.03904079818725586	0.9381439819335937	-0.05364469909667969	-0.04024959945678711	0.9413610229492188	-0.08017279815673828	-0.04260029983520508	0.9529849853515625	-0.10470500183105469	-0.04569879913330078	0.9876710205078125	-0.03882490158081055	-0.019911199569702148	0.9523309936523437	-0.05927190017700195	-0.01809630012512207	0.952791015625	-0.08517919921875	-0.01911759948730469	0.9606829833984375	-0.10586799621582031	-0.02571109962463379	0.9935150146484375	-0.04948559951782226	-0.002335700035095215	0.96706298828125	-0.06742919921875	0.001606639981269836	0.9695570068359375	-0.08557949829101562	0.0007114719748497001	0.9779089965820312	-0.1008290023803711	-0.007267980098724365	1.0016900024414062	-0.11600399780273438	-0.03429190063476562	1.0675699462890624
45	1.5	-0.04151229858398438	-0.07944049835205078	0.9712329711914063	-0.05764419937133789	-0.07792479705810547	0.9942520141601563	-0.07367500305175781	-0.0757947998046875	1.0226699829101562	-0.08847190093994141	-0.053456501007080076	1.045489990234375	-0.026999000549316407	-0.05444290161132812	0.9509609985351563	-0.048628299713134766	-0.057729698181152346	0.9514329833984375	-0.07233699798583984	-0.061410900115966796	0.9585029907226562	-0.09765660095214844	-0.06597760009765626	0.9905859985351563	-0.029786500930786133	-0.03532460021972656	0.9390850219726562	-0.052265800476074216	-0.03681019973754883	0.9418920288085938	-0.07895800018310548	-0.0397234001159668	0.953551025390625	-0.10338700103759765	-0.04371310043334961	0.9877420043945313	-0.037711200714111326	-0.016559000015258788	0.9540659790039062	-0.057910499572753904	-0.01497469997406006	0.9540089721679688	-0.08425769805908204	-0.01643210029602051	0.9614099731445312	-0.10506999969482422	-0.023773500442504883	0.9940980224609375	-0.04854449844360351	0.000416501998901367	0.9693040161132812	-0.0664655990600586	0.0042152099609375	0.9711209716796875	-0.08478199768066406	0.003066070079803467	0.9791680297851563	-0.10043199920654297	-0.005393730163574219	1.00247998046875	-0.11601699829101562	-0.03317409896850586	1.068050048828125
